<svg id="svg" version="1.1" xmlns="http://www.w3.org/2000/svg" xmlns:xlink="http://www.w3.org/1999/xlink" width="400" height="474.0740740740741" viewBox="0, 0, 400,474.0740740740741"><g id="svgg"><path id="path0" d="M0.000 237.000 L 0.000 474.000 200.000 474.000 L 400.000 474.000 400.000 237.000 L 400.000 0.000 200.000 0.000 L 0.000 0.000 0.000 237.000 M209.239 40.820 C 210.123 41.271,217.631 46.608,225.923 52.681 C 234.215 58.754,244.600 66.336,249.000 69.530 C 253.400 72.725,258.980 76.807,261.400 78.601 C 263.820 80.396,268.140 83.558,271.000 85.627 C 273.860 87.697,276.470 89.607,276.800 89.871 C 277.130 90.136,281.090 93.033,285.600 96.307 C 290.110 99.582,298.390 105.621,304.000 109.728 C 309.610 113.834,314.560 117.450,315.000 117.764 C 315.440 118.078,318.410 120.250,321.600 122.590 C 324.790 124.930,329.380 128.289,331.800 130.054 C 334.220 131.819,338.540 134.970,341.400 137.056 C 344.260 139.143,347.022 141.153,347.538 141.525 C 348.054 141.896,350.124 143.440,352.138 144.957 C 354.152 146.473,356.340 147.969,357.000 148.281 C 361.304 150.315,363.752 152.778,364.875 156.200 C 365.304 157.507,365.363 172.298,365.200 237.000 L 365.000 316.200 363.917 318.041 C 362.624 320.242,361.114 321.575,354.000 326.799 C 351.030 328.980,348.420 330.908,348.200 331.082 C 347.980 331.257,346.990 331.935,346.000 332.588 C 345.010 333.241,343.552 334.321,342.760 334.988 C 341.968 335.655,339.939 337.190,338.251 338.400 C 335.622 340.285,329.424 344.813,322.809 349.682 C 318.324 352.982,308.391 360.252,307.713 360.731 C 307.298 361.023,304.539 363.042,301.580 365.217 C 290.871 373.091,284.484 377.779,278.400 382.230 C 274.990 384.725,271.840 387.039,271.400 387.372 C 267.171 390.571,260.254 395.600,260.083 395.600 C 259.964 395.600,259.582 395.877,259.234 396.216 C 258.603 396.829,257.370 397.752,250.307 402.903 C 248.268 404.390,243.810 407.666,240.400 410.183 C 236.990 412.700,233.300 415.412,232.200 416.209 C 231.100 417.006,227.132 419.940,223.381 422.729 C 219.631 425.518,215.807 428.340,214.883 429.000 C 213.960 429.660,212.528 430.689,211.702 431.287 C 210.274 432.320,209.968 432.374,205.496 432.387 L 200.792 432.400 198.712 430.938 C 197.568 430.134,195.347 428.469,193.777 427.238 C 192.206 426.007,190.512 424.730,190.012 424.400 C 189.511 424.070,188.899 423.611,188.651 423.380 C 188.403 423.149,187.030 422.140,185.600 421.139 C 184.170 420.137,180.269 417.267,176.931 414.759 C 173.593 412.252,168.103 408.176,164.731 405.702 C 154.565 398.243,145.586 391.635,142.200 389.121 C 137.040 385.289,126.914 377.796,122.688 374.683 C 120.536 373.097,116.576 370.165,113.888 368.166 C 111.199 366.167,107.890 363.737,106.533 362.766 C 104.024 360.970,88.130 349.290,87.400 348.705 C 86.158 347.711,85.063 346.890,83.796 346.000 C 83.012 345.450,80.699 343.740,78.656 342.200 C 76.613 340.660,74.505 339.089,73.971 338.709 C 73.437 338.329,70.210 335.960,66.800 333.445 C 63.390 330.930,59.700 328.220,58.600 327.424 C 45.000 317.576,44.887 317.454,44.356 312.074 C 43.733 305.769,44.070 156.893,44.711 155.446 C 45.242 154.246,49.812 149.600,50.462 149.600 C 50.804 149.600,53.143 148.090,53.600 147.574 C 53.710 147.450,55.673 146.010,57.963 144.374 C 60.253 142.738,62.990 140.770,64.044 140.000 C 65.099 139.230,68.086 137.075,70.681 135.211 C 73.276 133.347,76.136 131.277,77.036 130.611 C 78.797 129.307,82.078 126.911,85.600 124.356 C 86.810 123.478,88.160 122.493,88.600 122.167 C 90.141 121.025,98.230 115.184,101.400 112.924 C 103.160 111.670,104.780 110.491,105.000 110.304 C 105.220 110.118,107.380 108.547,109.800 106.814 C 112.220 105.081,115.550 102.670,117.200 101.456 C 118.850 100.242,124.430 96.193,129.600 92.459 C 134.770 88.724,140.080 84.880,141.400 83.915 C 142.720 82.950,144.970 81.310,146.400 80.270 C 147.830 79.230,151.277 76.718,154.059 74.689 C 156.841 72.660,159.519 70.730,160.009 70.400 C 160.499 70.070,161.864 69.080,163.043 68.200 C 164.222 67.320,166.448 65.700,167.990 64.600 C 169.532 63.500,172.010 61.710,173.497 60.623 C 174.984 59.535,177.322 57.825,178.692 56.823 C 180.063 55.820,182.133 54.314,183.292 53.475 C 202.419 39.641,201.808 40.014,205.316 40.006 C 206.870 40.002,208.160 40.270,209.239 40.820 M203.174 64.114 C 201.064 65.601,198.399 67.564,195.594 69.700 C 194.510 70.525,193.498 71.200,193.345 71.200 C 193.192 71.200,192.782 71.473,192.434 71.806 C 192.085 72.140,190.720 73.215,189.400 74.195 C 188.080 75.176,186.820 76.118,186.600 76.289 C 186.380 76.460,185.390 77.139,184.400 77.799 C 183.410 78.458,182.456 79.223,182.280 79.499 C 182.104 79.774,181.784 80.000,181.568 80.000 C 181.353 80.000,180.237 80.721,179.088 81.603 C 177.940 82.485,176.820 83.340,176.600 83.503 C 176.379 83.666,175.536 84.295,174.726 84.900 C 173.916 85.505,173.151 86.000,173.027 86.000 C 172.902 86.000,172.485 86.281,172.100 86.624 C 171.715 86.967,169.960 88.310,168.200 89.608 C 166.440 90.906,164.162 92.605,163.137 93.384 C 162.112 94.163,161.138 94.800,160.971 94.800 C 160.804 94.800,160.382 95.076,160.034 95.413 C 158.929 96.483,150.736 102.400,150.360 102.400 C 150.162 102.400,150.000 102.586,150.000 102.813 C 150.000 103.040,149.682 103.355,149.293 103.513 C 148.618 103.787,147.463 104.599,142.626 108.200 C 141.444 109.080,140.078 110.070,139.590 110.400 C 139.103 110.730,136.387 112.710,133.555 114.800 C 124.368 121.581,119.147 125.392,118.484 125.800 C 118.126 126.020,116.731 127.010,115.384 128.000 C 110.276 131.754,107.909 133.477,97.800 140.801 C 85.016 150.062,82.141 152.158,79.413 154.200 C 78.238 155.080,76.883 156.070,76.402 156.400 C 71.623 159.675,71.596 159.323,76.927 163.153 C 78.647 164.389,80.897 166.006,81.927 166.746 C 84.428 168.543,88.354 171.303,89.116 171.800 C 89.783 172.235,90.746 173.003,92.000 174.100 C 92.440 174.485,92.943 174.800,93.119 174.800 C 93.294 174.800,93.789 175.073,94.219 175.407 C 95.009 176.020,103.711 182.320,106.527 184.317 C 107.367 184.913,109.289 186.345,110.798 187.500 C 112.307 188.655,113.671 189.600,113.830 189.600 C 113.988 189.600,114.856 190.189,115.759 190.908 C 116.661 191.628,118.206 192.753,119.192 193.408 C 120.934 194.567,122.010 195.370,122.945 196.209 C 123.195 196.434,124.390 197.279,125.600 198.087 C 126.810 198.895,128.790 200.273,130.000 201.149 C 131.210 202.025,132.920 203.248,133.800 203.867 C 134.680 204.486,137.530 206.569,140.134 208.496 C 142.737 210.423,144.969 212.000,145.092 212.000 C 145.216 212.000,146.056 212.589,146.959 213.308 C 147.861 214.028,149.408 215.153,150.395 215.808 C 151.382 216.464,152.642 217.393,153.195 217.873 C 154.336 218.864,157.137 220.800,157.430 220.800 C 157.536 220.800,158.511 221.475,159.595 222.300 C 160.679 223.125,162.608 224.552,163.883 225.471 C 165.157 226.391,167.425 228.056,168.921 229.171 C 170.418 230.287,171.742 231.200,171.864 231.200 C 171.985 231.200,172.803 231.769,173.680 232.463 C 175.454 233.868,177.948 235.600,178.197 235.600 C 178.286 235.600,178.863 236.067,179.479 236.639 C 180.878 237.936,183.913 240.000,184.420 240.000 C 184.629 240.000,184.800 240.151,184.800 240.335 C 184.800 240.520,185.925 241.393,187.300 242.276 C 188.675 243.159,190.250 244.268,190.800 244.741 C 191.723 245.535,196.889 249.277,198.335 250.200 C 198.680 250.420,199.788 251.230,200.798 252.000 C 201.808 252.770,203.297 253.753,204.105 254.184 L 205.575 254.969 206.771 254.084 C 207.429 253.598,208.155 253.200,208.384 253.200 C 208.613 253.200,208.800 253.038,208.800 252.839 C 208.800 252.640,209.745 251.828,210.900 251.033 C 214.971 248.233,219.400 245.032,220.910 243.800 C 221.180 243.580,222.210 242.861,223.200 242.201 C 224.190 241.542,225.090 240.911,225.200 240.799 C 225.804 240.185,228.396 238.400,228.684 238.400 C 228.870 238.400,229.326 238.085,229.697 237.700 C 230.973 236.376,231.868 235.600,232.116 235.600 C 232.486 235.600,235.226 233.696,236.618 232.471 C 238.339 230.957,240.298 229.600,240.764 229.600 C 240.982 229.600,241.304 229.374,241.480 229.099 C 241.656 228.823,242.610 228.064,243.600 227.412 C 244.590 226.761,246.480 225.405,247.800 224.400 C 249.120 223.395,250.965 222.059,251.900 221.432 C 252.835 220.805,253.600 220.148,253.600 219.973 C 253.600 219.797,253.950 219.543,254.377 219.407 C 254.804 219.272,256.513 218.135,258.174 216.880 C 259.835 215.626,262.459 213.700,264.006 212.600 C 265.552 211.500,267.799 209.880,269.000 209.000 C 270.200 208.120,272.540 206.410,274.200 205.200 C 275.860 203.990,278.205 202.280,279.412 201.400 C 280.620 200.520,282.966 198.810,284.626 197.600 C 286.287 196.390,288.975 194.410,290.600 193.200 C 292.225 191.990,294.475 190.370,295.600 189.600 C 296.725 188.830,298.975 187.210,300.600 186.000 C 302.225 184.790,304.918 182.810,306.585 181.600 C 308.251 180.390,310.584 178.680,311.769 177.800 C 312.954 176.920,314.321 175.930,314.808 175.600 C 315.294 175.270,316.153 174.640,316.715 174.200 C 317.821 173.335,320.656 171.288,326.409 167.200 C 333.207 162.369,336.748 159.529,336.553 159.063 C 336.447 158.809,334.023 156.890,331.166 154.800 C 328.309 152.710,323.233 148.990,319.886 146.532 C 316.539 144.075,312.485 141.105,310.878 139.932 C 305.156 135.756,303.727 134.708,297.720 130.281 C 294.376 127.816,291.249 125.530,290.770 125.200 C 290.292 124.870,288.932 123.880,287.748 123.000 C 283.975 120.195,277.588 115.527,274.450 113.280 C 273.927 112.906,272.628 111.925,271.562 111.100 C 270.496 110.275,269.528 109.600,269.412 109.600 C 269.295 109.600,268.885 109.316,268.500 108.968 C 268.115 108.620,266.810 107.621,265.600 106.748 C 262.285 104.355,261.976 104.130,259.600 102.381 C 258.390 101.489,256.975 100.454,256.456 100.080 C 255.936 99.706,254.547 98.680,253.369 97.800 C 252.192 96.920,250.309 95.570,249.186 94.800 C 248.063 94.030,246.932 93.217,246.672 92.994 C 246.412 92.771,244.850 91.604,243.200 90.400 C 241.550 89.196,239.988 88.029,239.728 87.806 C 239.468 87.583,238.337 86.770,237.214 86.000 C 234.426 84.088,230.735 81.342,229.966 80.606 C 229.618 80.273,229.208 80.000,229.055 80.000 C 228.902 80.000,227.907 79.325,226.844 78.500 C 225.781 77.675,224.509 76.730,224.017 76.400 C 222.614 75.458,218.673 72.509,217.900 71.822 C 217.515 71.480,217.105 71.200,216.988 71.200 C 216.872 71.200,215.837 70.479,214.688 69.597 C 212.307 67.768,212.519 67.927,209.600 65.788 C 207.334 64.128,205.315 62.789,205.114 62.814 C 205.051 62.822,204.178 63.407,203.174 64.114 M343.600 181.109 C 343.099 181.277,340.041 183.355,338.600 184.508 C 338.148 184.869,331.725 189.480,330.392 190.400 C 329.914 190.730,328.562 191.720,327.387 192.600 C 326.212 193.480,324.319 194.830,323.180 195.600 C 322.042 196.370,320.770 197.315,320.355 197.700 C 319.940 198.085,319.500 198.400,319.379 198.400 C 319.257 198.400,318.582 198.845,317.879 199.388 C 316.522 200.437,305.557 208.388,293.593 217.000 C 281.862 225.443,281.409 225.773,281.200 225.992 C 281.090 226.108,280.190 226.742,279.200 227.401 C 278.210 228.061,277.220 228.739,277.000 228.909 C 276.780 229.079,275.700 229.878,274.600 230.685 C 273.500 231.491,271.580 232.927,270.334 233.876 C 269.087 234.824,267.965 235.600,267.840 235.600 C 267.715 235.600,266.361 236.545,264.831 237.700 C 263.302 238.855,261.094 240.488,259.925 241.328 C 258.756 242.168,254.110 245.529,249.600 248.795 C 245.090 252.062,240.443 255.424,239.272 256.267 C 238.102 257.110,236.213 258.514,235.075 259.386 C 233.936 260.259,231.923 261.699,230.601 262.586 C 229.278 263.474,227.086 265.055,225.728 266.100 C 224.371 267.145,223.152 268.000,223.020 268.000 C 222.512 268.000,216.586 272.899,216.328 273.533 C 215.991 274.360,215.907 400.092,216.243 400.967 C 216.707 402.176,215.018 403.324,241.927 383.511 C 245.297 381.030,248.357 378.776,248.727 378.503 C 249.097 378.229,251.740 376.293,254.600 374.200 C 260.471 369.903,272.951 360.715,274.974 359.200 C 275.709 358.650,276.713 357.930,277.206 357.600 C 277.698 357.270,279.782 355.740,281.835 354.200 C 283.888 352.660,286.521 350.710,287.684 349.866 C 288.848 349.023,292.163 346.593,295.052 344.466 C 297.940 342.340,300.698 340.330,301.180 340.000 C 301.661 339.670,304.762 337.375,308.071 334.900 C 311.379 332.425,314.139 330.400,314.205 330.400 C 314.270 330.400,316.942 328.465,320.142 326.100 C 323.342 323.735,328.039 320.279,330.580 318.419 C 333.121 316.559,335.200 314.923,335.200 314.783 C 335.200 314.643,335.695 314.303,336.300 314.028 C 337.632 313.423,343.117 309.315,344.081 308.200 C 344.816 307.351,345.230 181.490,344.500 181.078 C 344.335 180.984,343.930 180.999,343.600 181.109 M64.793 181.900 C 64.664 194.026,64.882 306.147,65.034 306.545 C 65.240 307.082,68.590 309.646,81.600 319.222 C 84.570 321.409,87.396 323.513,87.881 323.899 C 88.365 324.284,91.425 326.536,94.681 328.903 C 97.936 331.270,103.232 335.140,106.448 337.503 C 109.665 339.866,112.788 342.160,113.388 342.600 C 113.989 343.040,115.089 343.850,115.833 344.400 C 116.578 344.950,119.900 347.380,123.216 349.800 C 135.095 358.469,141.411 363.140,142.100 363.765 C 142.485 364.114,142.873 364.400,142.962 364.400 C 143.051 364.400,145.738 366.335,148.932 368.700 C 152.126 371.065,157.557 375.070,160.999 377.600 C 164.441 380.130,168.831 383.370,170.755 384.800 C 172.678 386.230,176.356 388.930,178.928 390.800 C 181.500 392.670,185.808 395.844,188.502 397.854 C 192.062 400.510,193.537 401.399,193.900 401.105 C 194.296 400.786,194.400 387.485,194.400 337.026 L 194.400 273.350 193.300 272.367 C 191.778 271.007,189.712 269.600,189.236 269.600 C 189.018 269.600,188.696 269.374,188.520 269.099 C 188.344 268.823,187.390 268.062,186.400 267.408 C 185.410 266.753,183.398 265.314,181.929 264.209 C 180.460 263.104,178.333 261.570,177.204 260.800 C 176.074 260.030,174.174 258.680,172.982 257.800 C 169.487 255.220,165.669 252.490,161.561 249.634 C 159.450 248.166,156.994 246.387,156.104 245.682 C 155.213 244.977,154.378 244.400,154.248 244.400 C 154.048 244.400,151.398 242.471,147.200 239.269 C 146.650 238.850,145.390 237.951,144.400 237.273 C 143.410 236.595,141.340 235.133,139.800 234.025 C 138.260 232.917,136.010 231.336,134.800 230.512 C 133.590 229.688,132.420 228.868,132.200 228.689 C 131.980 228.511,129.820 226.946,127.400 225.213 C 124.980 223.479,122.100 221.415,121.000 220.627 C 119.900 219.838,117.862 218.340,116.470 217.296 C 115.079 216.253,113.595 215.204,113.173 214.964 C 112.751 214.725,112.075 214.230,111.671 213.864 C 111.267 213.499,110.726 213.200,110.469 213.200 C 110.211 213.200,110.000 213.050,110.000 212.867 C 110.000 212.684,109.055 211.922,107.900 211.174 C 106.745 210.426,104.307 208.731,102.483 207.407 C 100.658 206.083,98.318 204.398,97.283 203.662 C 96.247 202.926,93.510 200.946,91.200 199.263 C 84.559 194.424,83.537 193.697,81.200 192.152 C 79.990 191.352,78.856 190.450,78.680 190.149 C 78.504 189.847,78.198 189.600,78.000 189.600 C 77.802 189.600,76.866 189.055,75.920 188.390 C 71.949 185.595,70.087 184.246,68.163 182.766 C 65.972 181.081,64.804 180.781,64.793 181.900 " stroke="none" fill="#fcfcfb" fill-rule="evenodd"></path><path id="path1" d="M201.218 40.906 C 200.238 41.397,196.278 44.084,192.418 46.875 C 188.558 49.667,184.452 52.637,183.292 53.475 C 182.133 54.314,180.063 55.820,178.692 56.823 C 177.322 57.825,174.984 59.535,173.497 60.623 C 172.010 61.710,169.532 63.500,167.990 64.600 C 166.448 65.700,164.222 67.320,163.043 68.200 C 161.864 69.080,160.499 70.070,160.009 70.400 C 159.519 70.730,156.841 72.660,154.059 74.689 C 151.277 76.718,147.830 79.230,146.400 80.270 C 144.970 81.310,142.720 82.950,141.400 83.915 C 140.080 84.880,134.770 88.724,129.600 92.459 C 124.430 96.193,118.850 100.242,117.200 101.456 C 115.550 102.670,112.220 105.081,109.800 106.814 C 107.380 108.547,105.220 110.118,105.000 110.304 C 104.780 110.491,103.160 111.670,101.400 112.924 C 98.230 115.184,90.141 121.025,88.600 122.167 C 88.160 122.493,86.810 123.478,85.600 124.356 C 82.078 126.911,78.797 129.307,77.036 130.611 C 76.136 131.277,73.276 133.347,70.681 135.211 C 68.086 137.075,65.099 139.230,64.044 140.000 C 62.990 140.770,60.253 142.738,57.963 144.374 C 55.673 146.010,53.710 147.450,53.600 147.574 C 53.143 148.090,50.804 149.600,50.462 149.600 C 49.812 149.600,45.242 154.246,44.711 155.446 C 44.070 156.893,43.733 305.769,44.356 312.074 C 44.887 317.454,45.000 317.576,58.600 327.424 C 59.700 328.220,63.390 330.930,66.800 333.445 C 70.210 335.960,73.437 338.329,73.971 338.709 C 74.505 339.089,76.613 340.660,78.656 342.200 C 80.699 343.740,83.012 345.450,83.796 346.000 C 85.063 346.890,86.158 347.711,87.400 348.705 C 88.130 349.290,104.024 360.970,106.533 362.766 C 107.890 363.737,111.199 366.167,113.888 368.166 C 116.576 370.165,120.536 373.097,122.688 374.683 C 126.914 377.796,137.040 385.289,142.200 389.121 C 145.586 391.635,154.565 398.243,164.731 405.702 C 168.103 408.176,173.593 412.252,176.931 414.759 C 180.269 417.267,184.170 420.137,185.600 421.139 C 187.030 422.140,188.403 423.149,188.651 423.380 C 188.899 423.611,189.511 424.070,190.012 424.400 C 190.512 424.730,192.206 426.007,193.777 427.238 C 195.347 428.469,197.568 430.134,198.712 430.938 L 200.792 432.400 205.496 432.387 C 209.968 432.374,210.274 432.320,211.702 431.287 C 212.528 430.689,213.960 429.660,214.883 429.000 C 215.807 428.340,219.631 425.518,223.381 422.729 C 227.132 419.940,231.100 417.006,232.200 416.209 C 233.300 415.412,236.990 412.700,240.400 410.183 C 243.810 407.666,248.268 404.390,250.307 402.903 C 257.370 397.752,258.603 396.829,259.234 396.216 C 259.582 395.877,259.964 395.600,260.083 395.600 C 260.254 395.600,267.171 390.571,271.400 387.372 C 271.840 387.039,274.990 384.725,278.400 382.230 C 284.484 377.779,290.871 373.091,301.580 365.217 C 304.539 363.042,307.298 361.023,307.713 360.731 C 308.391 360.252,318.324 352.982,322.809 349.682 C 329.424 344.813,335.622 340.285,338.251 338.400 C 339.939 337.190,341.968 335.655,342.760 334.988 C 343.552 334.321,345.010 333.241,346.000 332.588 C 346.990 331.935,347.980 331.257,348.200 331.082 C 348.420 330.908,351.030 328.980,354.000 326.799 C 361.114 321.575,362.624 320.242,363.917 318.041 L 365.000 316.200 365.200 237.000 C 365.363 172.298,365.304 157.507,364.875 156.200 C 363.752 152.778,361.304 150.315,357.000 148.281 C 356.340 147.969,354.152 146.473,352.138 144.957 C 350.124 143.440,348.054 141.896,347.538 141.525 C 347.022 141.153,344.260 139.143,341.400 137.056 C 338.540 134.970,334.220 131.819,331.800 130.054 C 329.380 128.289,324.790 124.930,321.600 122.590 C 318.410 120.250,315.440 118.078,315.000 117.764 C 314.560 117.450,309.610 113.834,304.000 109.728 C 298.390 105.621,290.110 99.582,285.600 96.307 C 281.090 93.033,277.130 90.136,276.800 89.871 C 276.470 89.607,273.860 87.697,271.000 85.627 C 268.140 83.558,263.820 80.396,261.400 78.601 C 258.980 76.807,253.400 72.725,249.000 69.530 C 244.600 66.336,234.215 58.754,225.923 52.681 C 206.900 38.750,206.189 38.411,201.218 40.906 M206.314 63.488 C 206.911 63.867,208.390 64.902,209.600 65.788 C 212.519 67.927,212.307 67.768,214.688 69.597 C 215.837 70.479,216.872 71.200,216.988 71.200 C 217.105 71.200,217.515 71.480,217.900 71.822 C 218.673 72.509,222.614 75.458,224.017 76.400 C 224.509 76.730,225.781 77.675,226.844 78.500 C 227.907 79.325,228.902 80.000,229.055 80.000 C 229.208 80.000,229.618 80.273,229.966 80.606 C 230.735 81.342,234.426 84.088,237.214 86.000 C 238.337 86.770,239.468 87.583,239.728 87.806 C 239.988 88.029,241.550 89.196,243.200 90.400 C 244.850 91.604,246.412 92.771,246.672 92.994 C 246.932 93.217,248.063 94.030,249.186 94.800 C 250.309 95.570,252.192 96.920,253.369 97.800 C 254.547 98.680,255.936 99.706,256.456 100.080 C 256.975 100.454,258.390 101.489,259.600 102.381 C 261.976 104.130,262.285 104.355,265.600 106.748 C 266.810 107.621,268.115 108.620,268.500 108.968 C 268.885 109.316,269.295 109.600,269.412 109.600 C 269.528 109.600,270.496 110.275,271.562 111.100 C 272.628 111.925,273.927 112.906,274.450 113.280 C 277.588 115.527,283.975 120.195,287.748 123.000 C 288.932 123.880,290.292 124.870,290.770 125.200 C 291.249 125.530,294.376 127.816,297.720 130.281 C 303.727 134.708,305.156 135.756,310.878 139.932 C 312.485 141.105,316.539 144.075,319.886 146.532 C 323.233 148.990,328.309 152.710,331.166 154.800 C 334.023 156.890,336.447 158.809,336.553 159.063 C 336.748 159.529,333.207 162.369,326.409 167.200 C 320.656 171.288,317.821 173.335,316.715 174.200 C 316.153 174.640,315.294 175.270,314.808 175.600 C 314.321 175.930,312.954 176.920,311.769 177.800 C 310.584 178.680,308.251 180.390,306.585 181.600 C 304.918 182.810,302.225 184.790,300.600 186.000 C 298.975 187.210,296.725 188.830,295.600 189.600 C 294.475 190.370,292.225 191.990,290.600 193.200 C 288.975 194.410,286.287 196.390,284.626 197.600 C 282.966 198.810,280.620 200.520,279.412 201.400 C 278.205 202.280,275.860 203.990,274.200 205.200 C 272.540 206.410,270.200 208.120,269.000 209.000 C 267.799 209.880,265.552 211.500,264.006 212.600 C 262.459 213.700,259.835 215.626,258.174 216.880 C 256.513 218.135,254.804 219.272,254.377 219.407 C 253.950 219.543,253.600 219.797,253.600 219.973 C 253.600 220.148,252.835 220.805,251.900 221.432 C 250.965 222.059,249.120 223.395,247.800 224.400 C 246.480 225.405,244.590 226.761,243.600 227.412 C 242.610 228.064,241.656 228.823,241.480 229.099 C 241.304 229.374,240.982 229.600,240.764 229.600 C 240.298 229.600,238.339 230.957,236.618 232.471 C 235.226 233.696,232.486 235.600,232.116 235.600 C 231.868 235.600,230.973 236.376,229.697 237.700 C 229.326 238.085,228.870 238.400,228.684 238.400 C 228.396 238.400,225.804 240.185,225.200 240.799 C 225.090 240.911,224.190 241.542,223.200 242.201 C 222.210 242.861,221.180 243.580,220.910 243.800 C 219.400 245.032,214.971 248.233,210.900 251.033 C 209.745 251.828,208.800 252.640,208.800 252.839 C 208.800 253.038,208.613 253.200,208.384 253.200 C 208.155 253.200,207.429 253.598,206.771 254.084 L 205.575 254.969 204.105 254.184 C 203.297 253.753,201.808 252.770,200.798 252.000 C 199.788 251.230,198.680 250.420,198.335 250.200 C 196.889 249.277,191.723 245.535,190.800 244.741 C 190.250 244.268,188.675 243.159,187.300 242.276 C 185.925 241.393,184.800 240.520,184.800 240.335 C 184.800 240.151,184.629 240.000,184.420 240.000 C 183.913 240.000,180.878 237.936,179.479 236.639 C 178.863 236.067,178.286 235.600,178.197 235.600 C 177.948 235.600,175.454 233.868,173.680 232.463 C 172.803 231.769,171.985 231.200,171.864 231.200 C 171.742 231.200,170.418 230.287,168.921 229.171 C 167.425 228.056,165.157 226.391,163.883 225.471 C 162.608 224.552,160.679 223.125,159.595 222.300 C 158.511 221.475,157.536 220.800,157.430 220.800 C 157.137 220.800,154.336 218.864,153.195 217.873 C 152.642 217.393,151.382 216.464,150.395 215.808 C 149.408 215.153,147.861 214.028,146.959 213.308 C 146.056 212.589,145.216 212.000,145.092 212.000 C 144.969 212.000,142.737 210.423,140.134 208.496 C 137.530 206.569,134.680 204.486,133.800 203.867 C 132.920 203.248,131.210 202.025,130.000 201.149 C 128.790 200.273,126.810 198.895,125.600 198.087 C 124.390 197.279,123.195 196.434,122.945 196.209 C 122.010 195.370,120.934 194.567,119.192 193.408 C 118.206 192.753,116.661 191.628,115.759 190.908 C 114.856 190.189,113.988 189.600,113.830 189.600 C 113.671 189.600,112.307 188.655,110.798 187.500 C 109.289 186.345,107.367 184.913,106.527 184.317 C 103.711 182.320,95.009 176.020,94.219 175.407 C 93.789 175.073,93.294 174.800,93.119 174.800 C 92.943 174.800,92.440 174.485,92.000 174.100 C 90.746 173.003,89.783 172.235,89.116 171.800 C 88.354 171.303,84.428 168.543,81.927 166.746 C 80.897 166.006,78.647 164.389,76.927 163.153 C 71.596 159.323,71.623 159.675,76.402 156.400 C 76.883 156.070,78.238 155.080,79.413 154.200 C 82.141 152.158,85.016 150.062,97.800 140.801 C 107.909 133.477,110.276 131.754,115.384 128.000 C 116.731 127.010,118.126 126.020,118.484 125.800 C 119.147 125.392,124.368 121.581,133.555 114.800 C 136.387 112.710,139.103 110.730,139.590 110.400 C 140.078 110.070,141.444 109.080,142.626 108.200 C 147.463 104.599,148.618 103.787,149.293 103.513 C 149.682 103.355,150.000 103.040,150.000 102.813 C 150.000 102.586,150.162 102.400,150.360 102.400 C 150.736 102.400,158.929 96.483,160.034 95.413 C 160.382 95.076,160.804 94.800,160.971 94.800 C 161.138 94.800,162.112 94.163,163.137 93.384 C 164.162 92.605,166.440 90.906,168.200 89.608 C 169.960 88.310,171.715 86.967,172.100 86.624 C 172.485 86.281,172.902 86.000,173.027 86.000 C 173.151 86.000,173.916 85.505,174.726 84.900 C 175.536 84.295,176.379 83.666,176.600 83.503 C 176.820 83.340,177.940 82.485,179.088 81.603 C 180.237 80.721,181.353 80.000,181.568 80.000 C 181.784 80.000,182.104 79.774,182.280 79.499 C 182.456 79.223,183.410 78.458,184.400 77.799 C 185.390 77.139,186.380 76.460,186.600 76.289 C 186.820 76.118,188.080 75.176,189.400 74.195 C 190.720 73.215,192.085 72.140,192.434 71.806 C 192.782 71.473,193.192 71.200,193.345 71.200 C 193.498 71.200,194.510 70.525,195.594 69.700 C 204.866 62.640,204.923 62.607,206.314 63.488 M344.787 244.324 C 344.774 303.537,344.731 307.449,344.081 308.200 C 343.117 309.315,337.632 313.423,336.300 314.028 C 335.695 314.303,335.200 314.643,335.200 314.783 C 335.200 314.923,333.121 316.559,330.580 318.419 C 328.039 320.279,323.342 323.735,320.142 326.100 C 316.942 328.465,314.270 330.400,314.205 330.400 C 314.139 330.400,311.379 332.425,308.071 334.900 C 304.762 337.375,301.661 339.670,301.180 340.000 C 300.698 340.330,297.940 342.340,295.052 344.466 C 292.163 346.593,288.848 349.023,287.684 349.866 C 286.521 350.710,283.888 352.660,281.835 354.200 C 279.782 355.740,277.698 357.270,277.206 357.600 C 276.713 357.930,275.709 358.650,274.974 359.200 C 272.951 360.715,260.471 369.903,254.600 374.200 C 251.740 376.293,249.097 378.229,248.727 378.503 C 248.357 378.776,245.297 381.030,241.927 383.511 C 215.018 403.324,216.707 402.176,216.243 400.967 C 215.907 400.092,215.991 274.360,216.328 273.533 C 216.586 272.899,222.512 268.000,223.020 268.000 C 223.152 268.000,224.371 267.145,225.728 266.100 C 227.086 265.055,229.278 263.474,230.601 262.586 C 231.923 261.699,233.936 260.259,235.075 259.386 C 236.213 258.514,238.102 257.110,239.272 256.267 C 240.443 255.424,245.090 252.062,249.600 248.795 C 254.110 245.529,258.756 242.168,259.925 241.328 C 261.094 240.488,263.302 238.855,264.831 237.700 C 266.361 236.545,267.715 235.600,267.840 235.600 C 267.965 235.600,269.087 234.824,270.334 233.876 C 271.580 232.927,273.500 231.491,274.600 230.685 C 275.700 229.878,276.780 229.079,277.000 228.909 C 277.220 228.739,278.210 228.061,279.200 227.401 C 280.190 226.742,281.090 226.108,281.200 225.992 C 281.409 225.773,281.862 225.443,293.593 217.000 C 305.557 208.388,316.522 200.437,317.879 199.388 C 318.582 198.845,319.257 198.400,319.379 198.400 C 319.500 198.400,319.940 198.085,320.355 197.700 C 320.770 197.315,322.042 196.370,323.180 195.600 C 324.319 194.830,326.212 193.480,327.387 192.600 C 328.562 191.720,329.914 190.730,330.392 190.400 C 331.725 189.480,338.148 184.869,338.600 184.508 C 341.597 182.112,343.930 180.755,344.500 181.078 C 344.665 181.171,344.794 209.632,344.787 244.324 M68.163 182.766 C 70.087 184.246,71.949 185.595,75.920 188.390 C 76.866 189.055,77.802 189.600,78.000 189.600 C 78.198 189.600,78.504 189.847,78.680 190.149 C 78.856 190.450,79.990 191.352,81.200 192.152 C 83.537 193.697,84.559 194.424,91.200 199.263 C 93.510 200.946,96.247 202.926,97.283 203.662 C 98.318 204.398,100.658 206.083,102.483 207.407 C 104.307 208.731,106.745 210.426,107.900 211.174 C 109.055 211.922,110.000 212.684,110.000 212.867 C 110.000 213.050,110.211 213.200,110.469 213.200 C 110.726 213.200,111.267 213.499,111.671 213.864 C 112.075 214.230,112.751 214.725,113.173 214.964 C 113.595 215.204,115.079 216.253,116.470 217.296 C 117.862 218.340,119.900 219.838,121.000 220.627 C 122.100 221.415,124.980 223.479,127.400 225.213 C 129.820 226.946,131.980 228.511,132.200 228.689 C 132.420 228.868,133.590 229.688,134.800 230.512 C 136.010 231.336,138.260 232.917,139.800 234.025 C 141.340 235.133,143.410 236.595,144.400 237.273 C 145.390 237.951,146.650 238.850,147.200 239.269 C 151.398 242.471,154.048 244.400,154.248 244.400 C 154.378 244.400,155.213 244.977,156.104 245.682 C 156.994 246.387,159.450 248.166,161.561 249.634 C 165.669 252.490,169.487 255.220,172.982 257.800 C 174.174 258.680,176.074 260.030,177.204 260.800 C 178.333 261.570,180.460 263.104,181.929 264.209 C 183.398 265.314,185.410 266.753,186.400 267.408 C 187.390 268.062,188.344 268.823,188.520 269.099 C 188.696 269.374,189.018 269.600,189.236 269.600 C 189.712 269.600,191.778 271.007,193.300 272.367 L 194.400 273.350 194.400 337.026 C 194.400 387.485,194.296 400.786,193.900 401.105 C 193.537 401.399,192.062 400.510,188.502 397.854 C 185.808 395.844,181.500 392.670,178.928 390.800 C 176.356 388.930,172.678 386.230,170.755 384.800 C 168.831 383.370,164.441 380.130,160.999 377.600 C 157.557 375.070,152.126 371.065,148.932 368.700 C 145.738 366.335,143.051 364.400,142.962 364.400 C 142.873 364.400,142.485 364.114,142.100 363.765 C 141.411 363.140,135.095 358.469,123.216 349.800 C 119.900 347.380,116.578 344.950,115.833 344.400 C 115.089 343.850,113.989 343.040,113.388 342.600 C 112.788 342.160,109.665 339.866,106.448 337.503 C 103.232 335.140,97.936 331.270,94.681 328.903 C 91.425 326.536,88.365 324.284,87.881 323.899 C 87.396 323.513,84.570 321.409,81.600 319.222 C 68.590 309.646,65.240 307.082,65.034 306.545 C 64.882 306.147,64.664 194.026,64.793 181.900 C 64.804 180.781,65.972 181.081,68.163 182.766 " stroke="none" fill="#fcdc5d" fill-rule="evenodd"></path></g></svg>